<?xml version="1.0" encoding="utf-8"?>
<svg id="master-artboard" viewBox="0 0 1050 160" xmlns="http://www.w3.org/2000/svg" width="1050px" height="160px"><rect id="ee-background" x="0" y="0" width="1050" height="160" style="fill: rgb(108, 117, 125); fill-opacity: 1; pointer-events: none;"/><title>waves</title><path d="M332.6,204.67c-66.74,29.94-72.37,109.59-17.92,129.72,13.87,5.13,44.48-1.13,65.81-5.56C239,422.62,222.72,225.82,332.6,204.67Z" fill="#44c7f4" fill-rule="evenodd" transform="matrix(0.9999999999999999, 0, 0, 0.9999999999999999, -79.83086590666119, -157.6321413941375)"/><path d="M742.5,203.51c-66,29.66-71.72,108.32-17.91,128.12,13.72,5.05,44-1.18,65.09-5.58C649.64,418.87,633.82,224.55,742.5,203.51Z" fill="#44c7f4" fill-rule="evenodd" transform="matrix(1, 0, 0, 1, 15.795132856152122, -102.08962148586195)"/><path d="M -4.498504638671875 259.00785888671874 C 4.371495361328126 266.38785888671873 19.81 248.64 34.35 246.04999999999998 C 48.89 243.45999999999998 76.47 220.56 89 212.86 C 101.53 205.16000000000003 123.25 191.29000000000002 144.31 203.02 C 146.31 204.13000000000002 148.01 206.74 151.58 203.47 C 150.26000000000002 204.99 147.3 211.6 156.58 210.09 C 153.42000000000002 214.41 148.38000000000002 208.49 149.09 210.96 C 149.79999999999998 213.43 149.76 217.48000000000002 145.55 216.96 C 150.55 215.28 145.65 209.47 144.46 212.89000000000001 C 143.14000000000001 216.70000000000002 141.37 220.51000000000002 136.31 217.50000000000003 C 141.52 218.75000000000003 143.73 211.71000000000004 138.46 211.73000000000002 C 132.92000000000002 211.73000000000002 126.17000000000002 218.37 126.16000000000001 229.82000000000002 C 126.15 241.27000000000004 136.70000000000002 250.36 155.43 247.06000000000003 C 174.16 243.76000000000005 189.82 231.89000000000004 200.17000000000002 237.85000000000002 C 198.72000000000003 236.35000000000002 183.17000000000002 237.61 181.65 242.85000000000002 C 180.13 248.09000000000003 183.65 252.76000000000002 191.77 252.77 C 189.77 256.51 184.92000000000002 251.22 181.42000000000002 256.28000000000003 C 183.42000000000002 252.43000000000004 182.85000000000002 242.78000000000003 166.42000000000002 247.28000000000003 C 151.87 251.23000000000002 149.22000000000003 258.49 153.42000000000002 260.48 C 149.9 259.16 142.84 264.48 137.34000000000003 259.14000000000004 C 147.47000000000003 261.56000000000006 157.17000000000002 253.65000000000003 145.64000000000004 250.92000000000004 C 130.64000000000004 247.37000000000003 115.11000000000004 245.99000000000004 115.13000000000004 229.97000000000006 C 115.13000000000004 211.75000000000006 137.13000000000005 215.08000000000004 137.19000000000003 208.03000000000006 C 137.19000000000003 203.18000000000006 123.94000000000003 193.49000000000007 97.09000000000003 212.82000000000005 C 61.47 238.6 78 254.7 48 262.6 C 53 260.84000000000003 61 257.76000000000005 66.09 243.45000000000002 C 69.74000000000001 233.17000000000002 61.910000000000004 235.08 54.64 240.57000000000002 C 47.37 246.06000000000003 30.15 266.31 5.7 260.34 C 21.779999999999998 262.56 36.11 253.95 33.7 250.23999999999998 C 31.290000000000006 246.52999999999997 4.741495361328125 273.55785888671875 -4.498504638671875 259.00785888671874 Z" fill="#fff" transform="matrix(1.0382179021835327, 0, 0, 1.0382179021835327, 845.2417397563889, -126.54059288308835)"/><path d="M200.26,237.64c8.87,7.38,19.81,11,34.35,8.41s42.11-25.49,54.68-33.19,34.24-21.57,55.31-9.84c2,1.11,3.7,3.72,7.27.45-1.32,1.52-4.28,8.13,5.05,6.62-3.16,4.32-8.2-1.6-7.49.87s.67,6.52-3.54,6c5-1.68.1-7.49-1.09-4.07-1.32,3.81-3.09,7.62-8.15,4.61,5.21,1.25,7.42-5.79,2.15-5.77-5.55,0-12.29,6.64-12.3,18.09s10.54,20.54,29.27,17.24,34.39-15.17,44.74-9.21c-1.45-1.5-17-.24-18.52,5s2,9.91,10.12,9.92c-2,3.74-6.85-1.55-10.36,3.51,2-3.85,1.44-13.5-15-9-14.55,3.95-17.2,11.21-13,13.2-3.52-1.32-10.58,4-16.08-1.34,10.13,2.42,19.82-5.49,8.3-8.22-15-3.55-30.53-4.93-30.51-20.95,0-18.22,22-14.89,22.06-21.94,0-4.85-13.25-14.54-40.1,4.79-35.72,25.73-19.22,41.83-49.19,49.73,5.05-1.76,13-4.84,18.09-19.15,3.65-10.28-4.18-8.37-11.45-2.88S230.4,266.31,206,260.34c16.08,2.22,30.41-6.39,28-10.1S209.49,252.19,200.26,237.64Z" fill="#fff" transform="matrix(1, 0, 0, 1, 182.59855927649403, -92.25921667586678)"/><path d="M0,346.11c11.84,9.85,26.44,14.73,45.85,11.23s56.19-34,73-44.29,45.7-28.8,73.81-13.13c2.64,1.47,5,5,9.7.6-1.75,2-5.71,10.84,6.75,8.83-4.22,5.77-11-2.13-10,1.16s.9,8.7-4.72,8.08c6.65-2.25.13-10-1.45-5.44-1.77,5.08-4.13,10.18-10.89,6.16,7,1.67,9.91-7.74,2.88-7.7-7.4,0-16.4,8.85-16.42,24.14s14.07,27.41,39.06,23,45.89-20.25,59.7-12.29c-1.93-2-22.64-.32-24.7,6.73s2.62,13.24,13.5,13.25c-2.65,5-9.14-2.07-13.82,4.68,2.65-5.14,1.91-18-20-12.08-19.41,5.27-23,15-17.37,17.62-4.7-1.77-14.11,5.27-21.45-1.79,13.52,3.22,26.45-7.33,11.08-11-20-4.73-40.75-6.58-40.72-28,0-24.32,29.42-19.87,29.43-29.27,0-6.47-17.68-19.41-53.51,6.39C82,347.39,104.05,368.88,64.06,379.42c6.74-2.35,17.35-6.46,24.14-25.56,4.87-13.71-5.57-11.17-15.28-3.83S40.24,384.38,7.62,376.4c21.45,3,40.57-8.52,37.35-13.47S12.34,365.53,0,346.11Z" fill="#fff" transform="matrix(1, 0, 0, 1, 581.5380044048264, -201.53993123927992)"/><path d="M399.73,497.63c17.71,14.74,39.55,22,68.58,16.8s84.06-50.9,109.14-66.26,68.36-43.07,110.4-19.64c4,2.2,7.41,7.42,14.52.9-2.62,3-8.54,16.22,10.09,13.2-6.31,8.64-16.37-3.18-15,1.74s1.34,13-7.07,12.09c9.95-3.36.2-14.95-2.17-8.14-2.65,7.61-6.18,15.23-16.28,9.21,10.4,2.5,14.82-11.56,4.3-11.51-11.07.06-24.53,13.25-24.57,36.11s21.06,41,58.45,34.41,68.63-30.29,89.29-18.38c-2.89-3-33.86-.49-37,10.06s3.93,19.8,20.2,19.82c-4,7.46-13.68-3.1-20.68,7,4-7.69,2.86-26.95-29.88-18.06-29,7.88-34.33,22.38-26,26.35-7-2.65-21.12,7.88-32.1-2.68,20.23,4.82,39.57-11,16.58-16.41-29.9-7.08-60.95-9.84-60.91-41.82,0-36.38,44-29.72,44-43.8,0-9.67-26.45-29-80,9.58-71.3,51.35-38.36,83.49-98.19,99.25,10.08-3.51,26-9.65,36.11-38.22,7.29-20.51-8.33-16.72-22.86-5.74s-48.88,51.38-97.67,39.45c32.09,4.43,60.69-12.74,55.87-20.16S418.17,526.67,399.73,497.63Z" fill="#fff" transform="matrix(1, 0, 0, 1, -399.33980872823975, -382.30634795006847)"/><path d="M0,237.64c8.87,7.38,19.81,11,34.35,8.41S76.47,220.56,89,212.86s34.25-21.57,55.31-9.84c2,1.11,3.7,3.72,7.27.45-1.32,1.52-4.28,8.13,5,6.62-3.16,4.32-8.2-1.6-7.49.87s.67,6.52-3.54,6c5-1.68.1-7.49-1.09-4.07-1.32,3.81-3.09,7.62-8.15,4.61,5.21,1.25,7.42-5.79,2.15-5.77-5.54,0-12.29,6.64-12.3,18.09s10.54,20.54,29.27,17.24,34.39-15.17,44.74-9.21c-1.45-1.5-17-.24-18.52,5s2,9.91,10.12,9.92c-2,3.74-6.85-1.55-10.35,3.51,2-3.85,1.43-13.5-15-9-14.55,3.95-17.2,11.21-13,13.2-3.52-1.32-10.58,4-16.08-1.34,10.13,2.42,19.83-5.49,8.3-8.22-15-3.55-30.53-4.93-30.51-20.95,0-18.22,22-14.89,22.06-21.94,0-4.85-13.25-14.54-40.1,4.79C61.47,238.6,78,254.7,48,262.6c5-1.76,13-4.84,18.09-19.15,3.65-10.28-4.18-8.37-11.45-2.88S30.15,266.31,5.7,260.34c16.08,2.22,30.41-6.39,28-10.1S9.24,252.19,0,237.64Z" fill="#fff" transform="matrix(1.0168989896774292, 0, 0, 1.0168989896774292, 692.2285095236923, -43.050428142745886)"/></svg>